<mxfile host="app.diagrams.net" modified="2022-09-22T18:25:13.751Z" agent="5.0 (X11; Linux x86_64) AppleWebKit/537.36 (KHTML, like Gecko) Chrome/102.0.0.0 Safari/537.36" etag="rK0dmRJ6vfPzG4QLwxiy" version="20.2.7" type="github">
  <diagram id="oHT1brcGaXk7HLvxvYrl" name="Page-1">
    <mxGraphModel dx="1419" dy="749" grid="1" gridSize="10" guides="1" tooltips="1" connect="1" arrows="1" fold="1" page="1" pageScale="1" pageWidth="1100" pageHeight="850" background="none" math="0" shadow="0">
      <root>
        <mxCell id="0" />
        <mxCell id="1" parent="0" />
        <mxCell id="7bDiN7fm54R28u-8dyrE-8" value="" style="rounded=1;whiteSpace=wrap;html=1;" parent="1" vertex="1">
          <mxGeometry x="491" y="270" width="410" height="140" as="geometry" />
        </mxCell>
        <mxCell id="RmU3zWurGWmhPOp7JkEL-41" value="" style="whiteSpace=wrap;html=1;fillColor=#E6E6E6;opacity=40;" parent="1" vertex="1">
          <mxGeometry x="490" y="20" width="430" height="90" as="geometry" />
        </mxCell>
        <mxCell id="RmU3zWurGWmhPOp7JkEL-34" value="" style="rounded=0;whiteSpace=wrap;html=1;fillColor=#f8cecc;opacity=40;strokeColor=#b85450;" parent="1" vertex="1">
          <mxGeometry x="100" y="440" width="845" height="340" as="geometry" />
        </mxCell>
        <mxCell id="RmU3zWurGWmhPOp7JkEL-1" value="" style="sketch=0;points=[[0,0,0],[0.25,0,0],[0.5,0,0],[0.75,0,0],[1,0,0],[0,1,0],[0.25,1,0],[0.5,1,0],[0.75,1,0],[1,1,0],[0,0.25,0],[0,0.5,0],[0,0.75,0],[1,0.25,0],[1,0.5,0],[1,0.75,0]];outlineConnect=0;fontColor=#232F3E;gradientColor=#60A337;gradientDirection=north;fillColor=#277116;strokeColor=#ffffff;dashed=0;verticalLabelPosition=bottom;verticalAlign=top;align=center;html=1;fontSize=12;fontStyle=0;aspect=fixed;shape=mxgraph.aws4.resourceIcon;resIcon=mxgraph.aws4.s3;" parent="1" vertex="1">
          <mxGeometry x="130" y="588.48" width="40" height="40" as="geometry" />
        </mxCell>
        <mxCell id="RmU3zWurGWmhPOp7JkEL-2" value="HDF5" style="text;html=1;resizable=0;autosize=1;align=center;verticalAlign=middle;points=[];fillColor=#99CCFF;strokeColor=none;rounded=0;" parent="1" vertex="1">
          <mxGeometry x="30" y="591.74" width="50" height="30" as="geometry" />
        </mxCell>
        <mxCell id="RmU3zWurGWmhPOp7JkEL-7" value="Flight Data&lt;br&gt;&lt;br&gt;Where do we get this data?" style="image;html=1;image=img/lib/clip_art/computers/Database_128x128.png;fillColor=#99CCFF;" parent="1" vertex="1">
          <mxGeometry x="595" y="670" width="40" height="40" as="geometry" />
        </mxCell>
        <mxCell id="RmU3zWurGWmhPOp7JkEL-13" value="App1" style="shape=image;html=1;verticalAlign=bottom;verticalLabelPosition=top;labelBackgroundColor=#ffffff;imageAspect=0;aspect=fixed;image=https://cdn1.iconfinder.com/data/icons/unicons-line-vol-5/24/react-128.png;fillColor=#99CCFF;labelPosition=center;align=center;imageBackground=#C9C9C9;" parent="1" vertex="1">
          <mxGeometry x="580" y="40" width="50" height="50" as="geometry" />
        </mxCell>
        <mxCell id="RmU3zWurGWmhPOp7JkEL-21" value="App2&lt;br&gt;" style="shape=image;html=1;verticalAlign=bottom;verticalLabelPosition=top;labelBackgroundColor=#ffffff;imageAspect=0;aspect=fixed;image=https://cdn1.iconfinder.com/data/icons/unicons-line-vol-5/24/react-128.png;fillColor=#99CCFF;labelPosition=center;align=center;imageBackground=#C9C9C9;" parent="1" vertex="1">
          <mxGeometry x="780" y="40" width="50" height="50" as="geometry" />
        </mxCell>
        <mxCell id="RmU3zWurGWmhPOp7JkEL-27" value="NOAA Weather Data&lt;br&gt;" style="image;html=1;image=img/lib/clip_art/computers/Database_128x128.png;fillColor=#99CCFF;" parent="1" vertex="1">
          <mxGeometry x="810" y="670" width="40" height="40" as="geometry" />
        </mxCell>
        <mxCell id="RmU3zWurGWmhPOp7JkEL-28" value="ADSB Flight Feed&lt;br&gt;" style="image;html=1;image=img/lib/clip_art/computers/Database_128x128.png;fillColor=#99CCFF;" parent="1" vertex="1">
          <mxGeometry x="1040" y="690" width="40" height="40" as="geometry" />
        </mxCell>
        <UserObject label="HDF Processor" id="RmU3zWurGWmhPOp7JkEL-5">
          <mxCell style="outlineConnect=0;dashed=0;verticalLabelPosition=top;verticalAlign=bottom;align=center;html=1;shape=mxgraph.aws3.lambda_function;fillColor=#F58534;gradientColor=none;aspect=fixed;labelPosition=center;" parent="1" vertex="1">
            <mxGeometry x="210" y="587.61" width="40" height="41.74" as="geometry" />
          </mxCell>
        </UserObject>
        <mxCell id="RmU3zWurGWmhPOp7JkEL-37" value="" style="curved=1;endArrow=none;html=1;rounded=0;exitX=1;exitY=0.5;exitDx=0;exitDy=0;exitPerimeter=0;entryX=0;entryY=0.5;entryDx=0;entryDy=0;startArrow=none;" parent="1" source="RmU3zWurGWmhPOp7JkEL-1" target="RmU3zWurGWmhPOp7JkEL-5" edge="1">
          <mxGeometry width="50" height="50" relative="1" as="geometry">
            <mxPoint x="280" y="600" as="sourcePoint" />
            <mxPoint x="570" y="710" as="targetPoint" />
            <Array as="points" />
          </mxGeometry>
        </mxCell>
        <mxCell id="7bDiN7fm54R28u-8dyrE-1" value="API Gateway" style="outlineConnect=0;dashed=0;verticalLabelPosition=bottom;verticalAlign=top;align=center;html=1;shape=mxgraph.aws3.api_gateway;fillColor=#D9A741;gradientColor=none;aspect=fixed;" parent="1" vertex="1">
          <mxGeometry x="681" y="300" width="50" height="60.79" as="geometry" />
        </mxCell>
        <mxCell id="7bDiN7fm54R28u-8dyrE-2" value="" style="endArrow=none;html=1;rounded=0;entryX=0.5;entryY=1;entryDx=0;entryDy=0;" parent="1" target="RmU3zWurGWmhPOp7JkEL-13" edge="1">
          <mxGeometry width="50" height="50" relative="1" as="geometry">
            <mxPoint x="605" y="140" as="sourcePoint" />
            <mxPoint x="515" y="420" as="targetPoint" />
          </mxGeometry>
        </mxCell>
        <mxCell id="7bDiN7fm54R28u-8dyrE-3" value="" style="endArrow=none;html=1;rounded=0;entryX=0.5;entryY=1;entryDx=0;entryDy=0;" parent="1" edge="1">
          <mxGeometry width="50" height="50" relative="1" as="geometry">
            <mxPoint x="804.5" y="140" as="sourcePoint" />
            <mxPoint x="804.5" y="90" as="targetPoint" />
          </mxGeometry>
        </mxCell>
        <mxCell id="7bDiN7fm54R28u-8dyrE-4" value="" style="endArrow=none;html=1;rounded=0;" parent="1" edge="1">
          <mxGeometry width="50" height="50" relative="1" as="geometry">
            <mxPoint x="605" y="140" as="sourcePoint" />
            <mxPoint x="805" y="140" as="targetPoint" />
          </mxGeometry>
        </mxCell>
        <mxCell id="7bDiN7fm54R28u-8dyrE-5" value="CloudFront&lt;br style=&quot;font-size: 12px;&quot;&gt;Distribution" style="outlineConnect=0;dashed=0;verticalLabelPosition=middle;verticalAlign=middle;align=left;html=1;shape=mxgraph.aws3.cloudfront;fillColor=#F58536;gradientColor=none;aspect=fixed;labelPosition=right;fontSize=12;spacingRight=4;spacingLeft=10;" parent="1" vertex="1">
          <mxGeometry x="678" y="170" width="54" height="65.67" as="geometry" />
        </mxCell>
        <mxCell id="7bDiN7fm54R28u-8dyrE-6" value="API Gateway&lt;br&gt;Cache&lt;br&gt;" style="outlineConnect=0;dashed=0;verticalLabelPosition=bottom;verticalAlign=top;align=center;html=1;shape=mxgraph.aws3.cache_node;fillColor=#2E73B8;gradientColor=none;aspect=fixed;" parent="1" vertex="1">
          <mxGeometry x="571" y="306.77" width="45" height="47.25" as="geometry" />
        </mxCell>
        <mxCell id="7bDiN7fm54R28u-8dyrE-7" value="CloudWatch&lt;br&gt;Monitoring&lt;br&gt;" style="outlineConnect=0;dashed=0;verticalLabelPosition=bottom;verticalAlign=top;align=center;html=1;shape=mxgraph.aws3.cloudwatch;fillColor=#759C3E;gradientColor=none;aspect=fixed;" parent="1" vertex="1">
          <mxGeometry x="795" y="304.02" width="44.35" height="50" as="geometry" />
        </mxCell>
        <mxCell id="7bDiN7fm54R28u-8dyrE-9" value="" style="endArrow=classic;startArrow=classic;html=1;rounded=0;" parent="1" edge="1">
          <mxGeometry width="50" height="50" relative="1" as="geometry">
            <mxPoint x="616" y="329.89" as="sourcePoint" />
            <mxPoint x="676" y="329.89" as="targetPoint" />
          </mxGeometry>
        </mxCell>
        <mxCell id="7bDiN7fm54R28u-8dyrE-11" value="" style="endArrow=classic;startArrow=classic;html=1;rounded=0;" parent="1" edge="1">
          <mxGeometry width="50" height="50" relative="1" as="geometry">
            <mxPoint x="735" y="328.15999999999985" as="sourcePoint" />
            <mxPoint x="795" y="328.15999999999985" as="targetPoint" />
          </mxGeometry>
        </mxCell>
        <mxCell id="7bDiN7fm54R28u-8dyrE-15" value="" style="endArrow=classic;html=1;rounded=0;" parent="1" target="7bDiN7fm54R28u-8dyrE-5" edge="1">
          <mxGeometry width="50" height="50" relative="1" as="geometry">
            <mxPoint x="705" y="140" as="sourcePoint" />
            <mxPoint x="505" y="420" as="targetPoint" />
          </mxGeometry>
        </mxCell>
        <mxCell id="7bDiN7fm54R28u-8dyrE-16" value="" style="endArrow=classic;html=1;rounded=0;" parent="1" source="7bDiN7fm54R28u-8dyrE-5" target="7bDiN7fm54R28u-8dyrE-1" edge="1">
          <mxGeometry width="50" height="50" relative="1" as="geometry">
            <mxPoint x="700" y="240" as="sourcePoint" />
            <mxPoint x="530" y="440" as="targetPoint" />
          </mxGeometry>
        </mxCell>
        <mxCell id="I_Ha-Uoex_Oj4q_HBZg--1" value="" style="endArrow=classic;html=1;rounded=0;exitX=1.06;exitY=0.553;exitDx=0;exitDy=0;exitPerimeter=0;entryX=0;entryY=0.5;entryDx=0;entryDy=0;entryPerimeter=0;" edge="1" parent="1" source="RmU3zWurGWmhPOp7JkEL-2" target="RmU3zWurGWmhPOp7JkEL-1">
          <mxGeometry width="50" height="50" relative="1" as="geometry">
            <mxPoint x="430" y="540" as="sourcePoint" />
            <mxPoint x="480" y="490" as="targetPoint" />
          </mxGeometry>
        </mxCell>
        <mxCell id="I_Ha-Uoex_Oj4q_HBZg--16" value="" style="rounded=1;whiteSpace=wrap;html=1;fillColor=#dae8fc;strokeColor=#6c8ebf;" vertex="1" parent="1">
          <mxGeometry x="400" y="470" width="300" height="180" as="geometry" />
        </mxCell>
        <mxCell id="I_Ha-Uoex_Oj4q_HBZg--2" value="Parquet File &lt;br&gt;(Time Series Data)&lt;br&gt;" style="sketch=0;points=[[0,0,0],[0.25,0,0],[0.5,0,0],[0.75,0,0],[1,0,0],[0,1,0],[0.25,1,0],[0.5,1,0],[0.75,1,0],[1,1,0],[0,0.25,0],[0,0.5,0],[0,0.75,0],[1,0.25,0],[1,0.5,0],[1,0.75,0]];outlineConnect=0;fontColor=#232F3E;gradientColor=#60A337;gradientDirection=north;fillColor=#277116;strokeColor=#ffffff;dashed=0;verticalLabelPosition=bottom;verticalAlign=top;align=center;html=1;fontSize=12;fontStyle=0;aspect=fixed;shape=mxgraph.aws4.resourceIcon;resIcon=mxgraph.aws4.s3;" vertex="1" parent="1">
          <mxGeometry x="340" y="690" width="40" height="40" as="geometry" />
        </mxCell>
        <mxCell id="I_Ha-Uoex_Oj4q_HBZg--3" value="" style="endArrow=classic;html=1;rounded=0;exitX=0.855;exitY=0.855;exitDx=0;exitDy=0;exitPerimeter=0;" edge="1" parent="1" source="RmU3zWurGWmhPOp7JkEL-5" target="I_Ha-Uoex_Oj4q_HBZg--2">
          <mxGeometry width="50" height="50" relative="1" as="geometry">
            <mxPoint x="430" y="540" as="sourcePoint" />
            <mxPoint x="480" y="490" as="targetPoint" />
          </mxGeometry>
        </mxCell>
        <mxCell id="I_Ha-Uoex_Oj4q_HBZg--21" value="" style="edgeStyle=orthogonalEdgeStyle;rounded=0;orthogonalLoop=1;jettySize=auto;html=1;" edge="1" parent="1" source="I_Ha-Uoex_Oj4q_HBZg--4" target="I_Ha-Uoex_Oj4q_HBZg--8">
          <mxGeometry relative="1" as="geometry" />
        </mxCell>
        <mxCell id="I_Ha-Uoex_Oj4q_HBZg--4" value="Get Flight Time Series&lt;br&gt;FastAPI&lt;br&gt;with boto3" style="sketch=0;aspect=fixed;html=1;points=[];align=center;image;fontSize=12;image=img/lib/mscae/Docker.svg;flipV=0;labelPosition=center;verticalLabelPosition=top;verticalAlign=bottom;" vertex="1" parent="1">
          <mxGeometry x="450" y="580" width="50" height="41" as="geometry" />
        </mxCell>
        <mxCell id="I_Ha-Uoex_Oj4q_HBZg--5" value="" style="endArrow=classic;html=1;rounded=0;exitX=0.471;exitY=1.074;exitDx=0;exitDy=0;exitPerimeter=0;" edge="1" parent="1" source="I_Ha-Uoex_Oj4q_HBZg--4" target="I_Ha-Uoex_Oj4q_HBZg--2">
          <mxGeometry width="50" height="50" relative="1" as="geometry">
            <mxPoint x="430" y="540" as="sourcePoint" />
            <mxPoint x="480" y="490" as="targetPoint" />
          </mxGeometry>
        </mxCell>
        <UserObject label="&lt;a href=&quot;https://github.com/mapbox/webgl-wind&quot;&gt;Weather Api&lt;/a&gt;&lt;br&gt;" id="I_Ha-Uoex_Oj4q_HBZg--7">
          <mxCell style="outlineConnect=0;dashed=0;verticalLabelPosition=top;verticalAlign=bottom;align=center;html=1;shape=mxgraph.aws3.lambda_function;fillColor=#F58534;gradientColor=none;aspect=fixed;labelPosition=center;" vertex="1" parent="1">
            <mxGeometry x="810" y="560" width="40" height="41.74" as="geometry" />
          </mxCell>
        </UserObject>
        <mxCell id="I_Ha-Uoex_Oj4q_HBZg--8" value="Get Flight Information&lt;br&gt;FastAPI" style="sketch=0;aspect=fixed;html=1;points=[];align=center;image;fontSize=12;image=img/lib/mscae/Docker.svg;flipV=0;labelPosition=center;verticalLabelPosition=top;verticalAlign=bottom;" vertex="1" parent="1">
          <mxGeometry x="590" y="569" width="50" height="41" as="geometry" />
        </mxCell>
        <mxCell id="I_Ha-Uoex_Oj4q_HBZg--10" value="" style="endArrow=classic;html=1;rounded=0;exitX=0.5;exitY=1;exitDx=0;exitDy=0;exitPerimeter=0;entryX=0.5;entryY=0;entryDx=0;entryDy=0;" edge="1" parent="1" source="I_Ha-Uoex_Oj4q_HBZg--7" target="RmU3zWurGWmhPOp7JkEL-27">
          <mxGeometry width="50" height="50" relative="1" as="geometry">
            <mxPoint x="430" y="560" as="sourcePoint" />
            <mxPoint x="480" y="510" as="targetPoint" />
          </mxGeometry>
        </mxCell>
        <mxCell id="I_Ha-Uoex_Oj4q_HBZg--13" value="" style="endArrow=classic;html=1;rounded=0;exitX=0.492;exitY=1.062;exitDx=0;exitDy=0;exitPerimeter=0;entryX=0.5;entryY=0;entryDx=0;entryDy=0;" edge="1" parent="1" source="I_Ha-Uoex_Oj4q_HBZg--8" target="RmU3zWurGWmhPOp7JkEL-7">
          <mxGeometry width="50" height="50" relative="1" as="geometry">
            <mxPoint x="430" y="560" as="sourcePoint" />
            <mxPoint x="480" y="510" as="targetPoint" />
          </mxGeometry>
        </mxCell>
        <mxCell id="I_Ha-Uoex_Oj4q_HBZg--15" value="Kubenetes&lt;br&gt;" style="sketch=0;points=[[0,0,0],[0.25,0,0],[0.5,0,0],[0.75,0,0],[1,0,0],[0,1,0],[0.25,1,0],[0.5,1,0],[0.75,1,0],[1,1,0],[0,0.25,0],[0,0.5,0],[0,0.75,0],[1,0.25,0],[1,0.5,0],[1,0.75,0]];outlineConnect=0;fontColor=#232F3E;gradientColor=#F78E04;gradientDirection=north;fillColor=#D05C17;strokeColor=#ffffff;dashed=0;verticalLabelPosition=bottom;verticalAlign=top;align=center;html=1;fontSize=12;fontStyle=0;aspect=fixed;shape=mxgraph.aws4.resourceIcon;resIcon=mxgraph.aws4.eks_anywhere;" vertex="1" parent="1">
          <mxGeometry x="522" y="480" width="28" height="28" as="geometry" />
        </mxCell>
        <mxCell id="I_Ha-Uoex_Oj4q_HBZg--17" value="" style="curved=1;endArrow=classic;html=1;rounded=0;entryX=0;entryY=0.5;entryDx=0;entryDy=0;entryPerimeter=0;" edge="1" parent="1" target="I_Ha-Uoex_Oj4q_HBZg--7">
          <mxGeometry width="50" height="50" relative="1" as="geometry">
            <mxPoint x="720" y="410" as="sourcePoint" />
            <mxPoint x="480" y="510" as="targetPoint" />
            <Array as="points">
              <mxPoint x="790" y="460" />
              <mxPoint x="760" y="581" />
            </Array>
          </mxGeometry>
        </mxCell>
        <mxCell id="I_Ha-Uoex_Oj4q_HBZg--19" value="" style="curved=1;endArrow=classic;html=1;rounded=0;entryX=0.976;entryY=0.522;entryDx=0;entryDy=0;entryPerimeter=0;exitX=0.525;exitY=0.988;exitDx=0;exitDy=0;exitPerimeter=0;" edge="1" parent="1" source="7bDiN7fm54R28u-8dyrE-8" target="I_Ha-Uoex_Oj4q_HBZg--8">
          <mxGeometry width="50" height="50" relative="1" as="geometry">
            <mxPoint x="700" y="420" as="sourcePoint" />
            <mxPoint x="768" y="580.8699999999999" as="targetPoint" />
            <Array as="points">
              <mxPoint x="748" y="460" />
              <mxPoint x="718" y="581" />
            </Array>
          </mxGeometry>
        </mxCell>
        <mxCell id="I_Ha-Uoex_Oj4q_HBZg--20" value="" style="curved=1;endArrow=classic;html=1;rounded=0;entryX=0;entryY=0.488;entryDx=0;entryDy=0;entryPerimeter=0;exitX=0.525;exitY=0.988;exitDx=0;exitDy=0;exitPerimeter=0;" edge="1" parent="1" target="I_Ha-Uoex_Oj4q_HBZg--4">
          <mxGeometry width="50" height="50" relative="1" as="geometry">
            <mxPoint x="683.45" y="409.6599999999999" as="sourcePoint" />
            <mxPoint x="615.9999999999998" y="591.7419999999998" as="targetPoint" />
            <Array as="points">
              <mxPoint x="360" y="460" />
              <mxPoint x="350" y="570" />
            </Array>
          </mxGeometry>
        </mxCell>
      </root>
    </mxGraphModel>
  </diagram>
</mxfile>
